<?xml version="1.0" encoding="UTF-8" standalone="no"?>
<svg
   width="100.00005"
   height="79.093941"
   viewBox="0 0 26.458347 20.926939"
   version="1.1"
   id="svg867"
   inkscape:version="1.1 (c4e8f9ed74, 2021-05-24)"
   sodipodi:docname="icon.svg"
   xmlns:inkscape="http://www.inkscape.org/namespaces/inkscape"
   xmlns:sodipodi="http://sodipodi.sourceforge.net/DTD/sodipodi-0.dtd"
   xmlns="http://www.w3.org/2000/svg"
   xmlns:svg="http://www.w3.org/2000/svg"
   xmlns:rdf="http://www.w3.org/1999/02/22-rdf-syntax-ns#"
   xmlns:cc="http://creativecommons.org/ns#"
   xmlns:dc="http://purl.org/dc/elements/1.1/">
  <defs
     id="defs861" />
  <sodipodi:namedview
     id="base"
     pagecolor="#ffffff"
     bordercolor="#666666"
     borderopacity="1.0"
     inkscape:pageopacity="0.0"
     inkscape:pageshadow="2"
     inkscape:zoom="2.9424961"
     inkscape:cx="83.942336"
     inkscape:cy="16.482604"
     inkscape:document-units="px"
     inkscape:current-layer="layer1"
     inkscape:document-rotation="0"
     showgrid="false"
     units="px"
     inkscape:window-width="2491"
     inkscape:window-height="1403"
     inkscape:window-x="69"
     inkscape:window-y="0"
     inkscape:window-maximized="1"
     inkscape:pagecheckerboard="0" />
  <metadata
     id="metadata864">
    <rdf:RDF>
      <cc:Work
         rdf:about="">
        <dc:format>image/svg+xml</dc:format>
        <dc:type
           rdf:resource="http://purl.org/dc/dcmitype/StillImage" />
      </cc:Work>
    </rdf:RDF>
  </metadata>
  <g
     inkscape:label="Layer 1"
     inkscape:groupmode="layer"
     id="layer1"
     transform="translate(-129.38125,-111.62932)">
    <g
       id="g1707">
      <g
         id="g19264"
         transform="matrix(0.91138396,0,0,0.91138396,111.6461,25.6378)">
        <path
           d="m 28.168621,97.532493 4.183857,2.615147 c 0.06535,0.0407 0.138112,0.0603 0.209814,0.0603 0.132292,0 0.261673,-0.0661 0.336815,-0.18653 0.116152,-0.186003 0.0598,-0.430743 -0.126207,-0.546895 l -4.183856,-2.615142 c -0.186002,-0.116152 -0.430477,-0.0598 -0.546894,0.126207 -0.115887,0.186002 -0.05953,0.431006 0.126471,0.546893 z"
           id="path8343"
           style="fill:#ffffff;stroke-width:0.264583" />
        <path
           d="m 28.378965,106.48414 c 0.160602,0 0.311944,-0.0982 0.371475,-0.2577 l 1.568979,-4.18386 c 0.07699,-0.20532 -0.02699,-0.43418 -0.232039,-0.51091 -0.205582,-0.0775 -0.433917,0.027 -0.510911,0.23204 l -1.568979,4.18386 c -0.07699,0.20531 0.02699,0.43391 0.23204,0.51091 0.04604,0.0177 0.09287,0.0257 0.139435,0.0257 z"
           id="path8345"
           style="fill:#ffffff;stroke-width:0.264583" />
        <path
           d="m 25.575662,107.30819 c -0.113563,0.11356 -0.151168,0.28999 -0.08045,0.4449 l 1.848998,4.06787 c 0.09074,0.19962 0.326095,0.28793 0.525345,0.19719 0.200185,-0.0906 0.287742,-0.32591 0.197191,-0.52535 l -1.848997,-4.06787 c -0.09074,-0.19962 -0.325908,-0.28774 -0.525345,-0.19719 -0.04509,0.02 -0.08382,0.0475 -0.116743,0.0804 z"
           id="path8345-6"
           style="display:inline;fill:#ffffff;stroke-width:0.264583" />
        <path
           d="m 32.282363,104.76065 c -0.155046,0.15478 -0.155046,0.4064 0,0.56118 l 3.137958,3.13796 c 0.07752,0.0775 0.179123,0.11615 0.280723,0.11615 0.1016,0 0.2032,-0.0386 0.280723,-0.11615 0.155046,-0.15505 0.155046,-0.40614 0,-0.56119 l -3.137958,-3.13795 c -0.155311,-0.15505 -0.4064,-0.15505 -0.561446,0 z"
           id="path8347"
           style="fill:#ffffff;stroke-width:0.264583" />
        <path
           d="m 29.263467,108.33966 c -0.20029,0.0892 -0.290512,0.32385 -0.201348,0.52388 l 2.092061,4.7072 c 0.06588,0.1479 0.210873,0.23575 0.363008,0.23575 0.05397,0 0.108479,-0.0108 0.160867,-0.0341 0.200289,-0.0892 0.290512,-0.32385 0.201348,-0.52387 l -2.092061,-4.7072 c -0.0889,-0.20029 -0.323056,-0.29025 -0.523875,-0.20162 z"
           id="path8349"
           style="fill:#ffffff;stroke-width:0.264583" />
        <path
           d="m 33.609513,103.34618 c 0.0717,0 0.144462,-0.0196 0.209815,-0.0603 l 4.183856,-2.61514 c 0.185737,-0.11616 0.242358,-0.3609 0.126206,-0.5469 -0.116152,-0.186 -0.361156,-0.242356 -0.546894,-0.126204 l -4.183856,2.615144 c -0.186002,0.11615 -0.242358,0.36089 -0.126206,0.54689 0.07541,0.12039 0.204787,0.18653 0.337079,0.18653 z"
           id="path8351"
           style="fill:#ffffff;stroke-width:0.264583" />
        <path
           d="m 36.223861,98.638981 c 0.113771,0 0.226483,-0.04868 0.305065,-0.142875 l 2.614877,-3.137959 c 0.140229,-0.168539 0.117475,-0.418835 -0.0508,-0.559064 -0.168011,-0.140229 -0.418307,-0.11774 -0.5588,0.0508 l -2.614877,3.137958 c -0.14023,0.16854 -0.117475,0.418836 0.0508,0.559065 0.07408,0.06191 0.164306,0.09207 0.253735,0.09207 z"
           id="path8353"
           style="fill:#ffffff;stroke-width:0.264583" />
        <path
           d="m 39.665032,98.572306 3.137958,2.092064 c 0.06773,0.045 0.144198,0.0667 0.219869,0.0667 0.128058,0 0.254,-0.0619 0.330465,-0.17674 0.121708,-0.1823 0.07223,-0.42889 -0.110067,-0.55033 l -3.137958,-2.092064 c -0.182298,-0.121444 -0.428625,-0.0725 -0.550334,0.110066 -0.121708,0.182298 -0.0725,0.428625 0.110067,0.550334 z"
           id="path8355"
           style="fill:#ffffff;stroke-width:0.264583" />
        <path
           d="m 40.230711,102.59424 c -0.196056,0.0982 -0.275431,0.33628 -0.177535,0.5326 l 1.568979,3.13796 c 0.06959,0.13891 0.209814,0.21934 0.355335,0.21934 0.0598,0 0.120121,-0.0135 0.177271,-0.0418 0.196056,-0.0979 0.275431,-0.33629 0.177536,-0.53261 l -1.56898,-3.13796 c -0.09816,-0.19605 -0.336285,-0.27543 -0.532606,-0.17753 z"
           id="path8357"
           style="fill:#ffffff;stroke-width:0.264583" />
        <path
           d="m 47.930566,114.65955 c 0.06922,-0.20804 -0.04303,-0.43255 -0.251073,-0.50215 l -3.328307,-1.10943 c -0.147426,-0.049 -0.303458,-0.007 -0.406357,0.0962 -0.04228,0.0423 -0.0754,0.0945 -0.09579,0.15491 -0.06941,0.20785 0.04303,0.43255 0.251073,0.50215 l 3.328307,1.10943 c 0.208043,0.0692 0.432549,-0.043 0.502146,-0.25107 z"
           id="path8357-7"
           style="display:inline;fill:#ffffff;stroke-width:0.264583" />
        <path
           d="m 38.943249,105.18133 c -0.210609,-0.0572 -0.429684,0.0667 -0.487363,0.27861 l -1.568979,5.7531 c -0.05768,0.2114 0.06694,0.42968 0.278606,0.48736 0.03493,0.01 0.07012,0.014 0.104775,0.014 0.174625,0 0.334433,-0.11588 0.382588,-0.29236 l 1.568979,-5.7531 c 0.05768,-0.21167 -0.06694,-0.42995 -0.278606,-0.48763 z"
           id="path8359"
           style="fill:#ffffff;stroke-width:0.264583" />
        <path
           d="m 37.197528,112.97305 -3.647282,0.61277 c -0.216164,0.0365 -0.36195,0.24104 -0.325702,0.4572 0.03281,0.19394 0.200554,0.33126 0.391054,0.33126 0.02196,0 0.04419,-0.002 0.06615,-0.006 l 3.647282,-0.61251 c 0.216164,-0.0365 0.36195,-0.24103 0.325702,-0.4572 -0.03625,-0.21642 -0.241565,-0.36089 -0.4572,-0.32596 z"
           id="path8361"
           style="fill:#ffffff;stroke-width:0.264583" />
        <path
           d="m 45.724255,110.9302 -4.707202,-1.04616 c -0.213784,-0.0476 -0.425715,0.0873 -0.47334,0.30136 -0.04762,0.21405 0.08731,0.42571 0.301361,0.47334 l 4.707202,1.04616 c 0.02884,0.006 0.05794,0.01 0.08625,0.01 0.182033,0 0.346075,-0.12594 0.387085,-0.31088 0.04762,-0.21405 -0.08731,-0.42598 -0.30136,-0.47334 z"
           id="path8363"
           style="fill:#ffffff;stroke-width:0.264583" />
        <path
           d="m 46.953245,105.25939 -3.137959,2.61514 c -0.168539,0.14023 -0.191294,0.39079 -0.0508,0.5588 0.07858,0.0942 0.191558,0.14287 0.305065,0.14287 0.08943,0 0.179652,-0.0302 0.253735,-0.0921 l 3.137959,-2.61514 c 0.168539,-0.14023 0.191293,-0.39053 0.0508,-0.55907 -0.140494,-0.16827 -0.390525,-0.19076 -0.5588,-0.0505 z"
           id="path8365"
           style="fill:#ffffff;stroke-width:0.264583" />
        <path
           d="m 43.285061,97.761887 c 0.08943,0 0.179652,-0.03016 0.253736,-0.09208 l 3.137958,-2.615142 c 0.16854,-0.140229 0.191294,-0.390525 0.0508,-0.559064 -0.140494,-0.16854 -0.391054,-0.191294 -0.5588,-0.0508 l -3.137958,2.615141 c -0.16854,0.14023 -0.191294,0.390525 -0.0508,0.559065 0.07832,0.09446 0.191293,0.142875 0.305064,0.142875 z"
           id="path8367"
           style="fill:#ffffff;stroke-width:0.264583" />
        <path
           d="m 48.484252,101.43095 c -0.03885,-0.21582 -0.244701,-0.35881 -0.460713,-0.32068 l -3.920532,0.70302 c -0.215819,0.0389 -0.359298,0.24503 -0.32068,0.46072 0.02149,0.11994 0.0947,0.21751 0.192308,0.27386 0.07836,0.0452 0.172303,0.064 0.268405,0.0468 l 3.920532,-0.70303 c 0.215819,-0.0388 0.359298,-0.24503 0.32068,-0.46071 z"
           id="path8369"
           style="fill:#ffffff;stroke-width:0.264583" />
        <path
           d="m 40.165888,113.12889 c -0.155046,-0.15505 -0.406135,-0.15505 -0.561181,0 -0.155046,0.15504 -0.155046,0.40613 0,0.56118 l 3.137958,3.13796 c 0.07752,0.0775 0.179123,0.11615 0.280723,0.11615 0.1016,0 0.2032,-0.0386 0.280723,-0.11615 0.155046,-0.15505 0.155046,-0.40614 0,-0.56118 z"
           id="path8371"
           style="fill:#ffffff;stroke-width:0.264583" />
        <path
           d="m 32.397986,116.52799 -3.698346,-0.73951 c -0.2159,-0.0447 -0.423863,0.0963 -0.46699,0.31141 -0.04313,0.21511 0.09631,0.42413 0.311415,0.46699 l 3.698346,0.73951 c 0.02619,0.006 0.05239,0.008 0.07805,0.008 0.185473,0 0.351102,-0.13044 0.388673,-0.31909 0.04313,-0.21511 -0.09631,-0.42413 -0.31115,-0.46699 z"
           id="path8373"
           style="fill:#ffffff;stroke-width:0.264583" />
      </g>
      <path
         d="m 129.44155,112.36064 0.004,16.17881 c 0,0 0,0.004 0,0.004 v 3.28213 c 0,0.27585 0.22387,0.49972 0.49971,0.49972 h 3.63394 c 0.27585,0.004 0.49972,-0.21988 0.49972,-0.49572 l -0.004,-19.46894 c 0,-0.27585 -0.22387,-0.49972 -0.49972,-0.49972 h -3.62593 c -0.012,0 -0.02,0 -0.032,0 -0.26386,0.0119 -0.47574,0.23187 -0.47574,0.49972 z m 4.0337,1.99487 h -1.07938 c -0.16391,0 -0.29983,0.13592 -0.29983,0.29982 0,0.16391 0.13592,0.29984 0.29983,0.29984 h 1.07938 v 0.72359 h -1.91891 c -0.1639,0 -0.29982,0.13592 -0.29982,0.29982 0,0.16391 0.13592,0.29983 0.29982,0.29983 h 1.91891 v 0.7236 h -1.07938 c -0.16391,0 -0.29983,0.13592 -0.29983,0.29982 0,0.16392 0.13592,0.29983 0.29983,0.29983 h 1.07938 v 0.7236 h -1.07938 c -0.16391,0 -0.29983,0.13592 -0.29983,0.29983 0,0.1639 0.13592,0.29983 0.29983,0.29983 h 1.07938 v 0.72358 h -1.07938 c -0.16391,0 -0.29983,0.13593 -0.29983,0.29983 0,0.16391 0.13592,0.29984 0.29983,0.29984 h 1.07938 v 0.72358 h -1.95888 c -0.16391,0 -0.29983,0.13592 -0.29983,0.29984 0,0.1639 0.13592,0.29982 0.29983,0.29982 h 1.95888 v 0.72359 h -1.07938 c -0.16391,0 -0.29983,0.13592 -0.29983,0.29983 0,0.16391 0.13592,0.29983 0.29983,0.29983 h 1.07938 v 0.72359 h -1.07938 c -0.16391,0 -0.29983,0.13592 -0.29983,0.29983 0,0.1639 0.13592,0.29983 0.29983,0.29983 h 1.07938 v 0.72359 h -1.07938 c -0.16391,0 -0.29983,0.13592 -0.29983,0.29983 0,0.1639 0.13592,0.29983 0.29983,0.29983 h 1.07938 v 0.72359 h -1.95888 c -0.16391,0 -0.29983,0.13592 -0.29983,0.29983 0,0.1639 0.13592,0.29982 0.29983,0.29982 h 1.95888 v 0.7236 h -1.07938 c -0.16391,0 -0.29983,0.13591 -0.29983,0.29982 0,0.16391 0.13592,0.29983 0.29983,0.29983 h 1.07938 v 0.72359 h -1.07938 c -0.16391,0 -0.29983,0.13592 -0.29983,0.29983 0,0.1639 0.13592,0.29983 0.29983,0.29983 h 1.07938 v 0.72359 h -1.07938 c -0.16391,0 -0.29983,0.13592 -0.29983,0.29983 0,0.1639 0.13592,0.29983 0.29983,0.29983 h 1.07938 v 0.91148 h -3.43404 v -8.21533 c 0,-0.004 0,-0.012 0,-0.016 v -11.03769 h 0.58366 c 0,0 0.004,0 0.004,0 h 2.84239 z"
         id="path9214"
         style="fill:#ffffff;stroke:#ffffff;stroke-width:0.120569;stroke-miterlimit:4;stroke-dasharray:none;stroke-opacity:1" />
    </g>
  </g>
</svg>
